<svg width="26" height="20" viewBox="0 0 26 20" fill="none" xmlns="http://www.w3.org/2000/svg">
<path d="M12.4179 0.535645L7.04389 18.5083H3.46341L0.77612 0.535645H12.4179Z" stroke="#979797"/>
<rect x="3.5" y="17.5" width="19" height="1" fill="#9E9E9E" stroke="#979797"/>
<path d="M7.5 8C7.5 5.51472 9.51472 3.5 12 3.5H20C22.4853 3.5 24.5 5.51472 24.5 8V17C24.5 17.8284 23.8284 18.5 23 18.5H9C8.17157 18.5 7.5 17.8284 7.5 17V8Z" fill="white" stroke="#979797"/>
<rect x="7" y="9" width="18" height="2" fill="#979797"/>
<path fill-rule="evenodd" clip-rule="evenodd" d="M7.19336 14.8245H24.2753L25.8599 10.9287L22.6052 11.0061L16.2468 14.0034L9.95215 11.082L6.19019 11.0503L6.22632 12.7515L7.19336 14.8245Z" fill="#979797"/>
</svg>
